<svg width="12" height="12" viewBox="0 0 12 12" fill="none" xmlns="http://www.w3.org/2000/svg">
<path d="M5.44658 1.32132C5.65221 0.830376 6.34779 0.830377 6.55342 1.32132L7.71896 4.10413C7.80547 4.31067 7.99979 4.45185 8.22295 4.47029L11.2297 4.71886C11.7602 4.76271 11.9751 5.42425 11.5718 5.77152L9.28533 7.73996C9.11563 7.88605 9.04141 8.11449 9.09282 8.33243L9.78557 11.2689C9.90778 11.7869 9.34504 12.1958 8.89012 11.9194L6.31148 10.3532C6.1201 10.2369 5.8799 10.2369 5.68852 10.3532L3.10988 11.9194C2.65496 12.1958 2.09222 11.7869 2.21443 11.2689L2.90718 8.33243C2.95859 8.11449 2.88437 7.88605 2.71467 7.73996L0.428238 5.77152C0.0248653 5.42425 0.239814 4.76271 0.77027 4.71886L3.77705 4.47029C4.00021 4.45185 4.19453 4.31067 4.28104 4.10413L5.44658 1.32132Z" fill="#F2C94C"/>
</svg>
